HIERARCHY
ROOT Hips
{
    OFFSET 0.000000 0.000000 0.000000
    CHANNELS 6 Xposition Yposition Zposition Zrotation Yrotation Xrotation
    JOINT Chest
    {
        OFFSET 0.000000 1.634758 -0.000000
        CHANNELS 3 Zrotation Yrotation Xrotation
        JOINT Chest2
        {
            OFFSET 0.000000 2.197341 0.000000
            CHANNELS 3 Zrotation Yrotation Xrotation
            JOINT Neck
            {
                OFFSET 0.000000 0.961544 0.000000
                CHANNELS 3 Zrotation Yrotation Xrotation
                JOINT Head
                {
                    OFFSET 0.000000 0.632542 -0.032565
                    CHANNELS 3 Zrotation Yrotation Xrotation
                    End Site
                    {
                        OFFSET -0.000001 0.439502 2.922845
                    }
                }
            }
            JOINT LeftCollar
            {
                OFFSET 0.167536 0.778237 -0.168280
                CHANNELS 3 Zrotation Yrotation Xrotation
                JOINT LeftShoulder
                {
                    OFFSET 0.831514 -0.002900 0.006458
                    CHANNELS 3 Zrotation Yrotation Xrotation
                    JOINT LeftElbow
                    {
                        OFFSET 2.272872 -0.026639 0.059314
                        CHANNELS 3 Zrotation Yrotation Xrotation
                        JOINT LeftWrist
                        {
                            OFFSET 2.081982 -0.024402 0.054333
                            CHANNELS 3 Zrotation Yrotation Xrotation
                            JOINT LeftHandThumb1
                            {
                                OFFSET 0.218903 -0.128645 0.283837
                                CHANNELS 3 Zrotation Yrotation Xrotation
                                JOINT LeftHandThumb2
                                {
                                    OFFSET 0.137157 -0.025101 0.077902
                                    CHANNELS 3 Zrotation Yrotation Xrotation
                                    JOINT LeftHandThumb3
                                    {
                                        OFFSET 0.165861 -0.067014 0.039226
                                        CHANNELS 3 Zrotation Yrotation Xrotation
                                        End Site
                                        {
                                            OFFSET 0.241157 -0.045065 0.107930
                                        }
                                    }
                                }
                            }
                            JOINT LeftHandFore1
                            {
                                OFFSET 0.767340 -0.016076 0.196678
                                CHANNELS 3 Zrotation Yrotation Xrotation
                                JOINT LeftHandFore2
                                {
                                    OFFSET 0.212944 -0.039015 0.011315
                                    CHANNELS 3 Zrotation Yrotation Xrotation
                                    JOINT LeftHandFore3
                                    {
                                        OFFSET 0.126107 -0.028526 0.006804
                                        CHANNELS 3 Zrotation Yrotation Xrotation
                                        End Site
                                        {
                                            OFFSET 0.190484 -0.032402 0.005737
                                        }
                                    }
                                }
                            }
                            JOINT LeftHandMiddle1
                            {
                                OFFSET 0.709887 -0.008320 0.018526
                                CHANNELS 3 Zrotation Yrotation Xrotation
                                JOINT LeftHandMiddle2
                                {
                                    OFFSET 0.209127 -0.127483 0.008816
                                    CHANNELS 3 Zrotation Yrotation Xrotation
                                    JOINT LeftHandMiddle3
                                    {
                                        OFFSET 0.100261 -0.106283 0.005918
                                        CHANNELS 3 Zrotation Yrotation Xrotation
                                        End Site
                                        {
                                            OFFSET 0.122274 -0.201419 0.010483
                                        }
                                    }
                                }
                            }
                            JOINT LeftHandRing1
                            {
                                OFFSET 0.743817 -0.005823 -0.153668
                                CHANNELS 3 Zrotation Yrotation Xrotation
                                JOINT LeftHandRing2
                                {
                                    OFFSET 0.312797 -0.163728 -0.009197
                                    CHANNELS 3 Zrotation Yrotation Xrotation
                                    JOINT LeftHandRing3
                                    {
                                        OFFSET 0.077856 -0.111983 0.001957
                                        CHANNELS 3 Zrotation Yrotation Xrotation
                                        End Site
                                        {
                                            OFFSET 0.046861 -0.110548 0.001738
                                        }
                                    }
                                }
                            }
                            JOINT LeftHandLittle1
                            {
                                OFFSET 0.689408 -0.053302 -0.308304
                                CHANNELS 3 Zrotation Yrotation Xrotation
                                JOINT LeftHandLittle2
                                {
                                    OFFSET 0.187514 -0.050420 -0.018722
                                    CHANNELS 3 Zrotation Yrotation Xrotation
                                    JOINT LeftHandLittle3
                                    {
                                        OFFSET 0.110150 -0.047159 -0.011802
                                        CHANNELS 3 Zrotation Yrotation Xrotation
                                        End Site
                                        {
                                            OFFSET 0.184611 -0.045535 -0.011576
                                        }
                                    }
                                }
                            }
                        }
                    }
                }
            }
            JOINT RightCollar
            {
                OFFSET -0.167536 0.778237 -0.168280
                CHANNELS 3 Zrotation Yrotation Xrotation
                JOINT RightShoulder
                {
                    OFFSET -0.831514 -0.002900 0.006457
                    CHANNELS 3 Zrotation Yrotation Xrotation
                    JOINT RightElbow
                    {
                        OFFSET -2.272872 -0.026639 0.059313
                        CHANNELS 3 Zrotation Yrotation Xrotation
                        JOINT RightWrist
                        {
                            OFFSET -2.081982 -0.024402 0.054331
                            CHANNELS 3 Zrotation Yrotation Xrotation
                            JOINT RightHandThumb1
                            {
                                OFFSET -0.218911 -0.128571 0.283837
                                CHANNELS 3 Zrotation Yrotation Xrotation
                                JOINT RightHandThumb2
                                {
                                    OFFSET -0.137157 -0.025101 0.077902
                                    CHANNELS 3 Zrotation Yrotation Xrotation
                                    JOINT RightHandThumb3
                                    {
                                        OFFSET -0.165861 -0.067014 0.039226
                                        CHANNELS 3 Zrotation Yrotation Xrotation
                                        End Site
                                        {
                                            OFFSET -0.229436 -0.065997 0.121819
                                        }
                                    }
                                }
                            }
                            JOINT RightHandFore1
                            {
                                OFFSET -0.767344 -0.015991 0.196679
                                CHANNELS 3 Zrotation Yrotation Xrotation
                                JOINT RightHandFore2
                                {
                                    OFFSET -0.212956 -0.038967 0.011314
                                    CHANNELS 3 Zrotation Yrotation Xrotation
                                    JOINT RightHandFore3
                                    {
                                        OFFSET -0.126114 -0.028498 0.006722
                                        CHANNELS 3 Zrotation Yrotation Xrotation
                                        End Site
                                        {
                                            OFFSET -0.190043 -0.032287 0.014424
                                        }
                                    }
                                }
                            }
                            JOINT RightHandMiddle1
                            {
                                OFFSET -0.709887 -0.008302 0.018525
                                CHANNELS 3 Zrotation Yrotation Xrotation
                                JOINT RightHandMiddle2
                                {
                                    OFFSET -0.209111 -0.127502 0.008816
                                    CHANNELS 3 Zrotation Yrotation Xrotation
                                    JOINT RightHandMiddle3
                                    {
                                        OFFSET -0.100331 -0.106323 0.003652
                                        CHANNELS 3 Zrotation Yrotation Xrotation
                                        End Site
                                        {
                                            OFFSET -0.122536 -0.201510 0.002965
                                        }
                                    }
                                }
                            }
                            JOINT RightHandRing1
                            {
                                OFFSET -0.743819 -0.005785 -0.153669
                                CHANNELS 3 Zrotation Yrotation Xrotation
                                JOINT RightHandRing2
                                {
                                    OFFSET -0.312809 -0.163706 -0.009196
                                    CHANNELS 3 Zrotation Yrotation Xrotation
                                    JOINT RightHandRing3
                                    {
                                        OFFSET -0.077666 -0.111584 -0.011046
                                        CHANNELS 3 Zrotation Yrotation Xrotation
                                        End Site
                                        {
                                            OFFSET -0.046690 -0.110188 -0.009945
                                        }
                                    }
                                }
                            }
                            JOINT RightHandLittle1
                            {
                                OFFSET -0.689403 -0.053298 -0.308303
                                CHANNELS 3 Zrotation Yrotation Xrotation
                                JOINT RightHandLittle2
                                {
                                    OFFSET -0.187518 -0.050415 -0.018723
                                    CHANNELS 3 Zrotation Yrotation Xrotation
                                    JOINT RightHandLittle3
                                    {
                                        OFFSET -0.110149 -0.047154 -0.011798
                                        CHANNELS 3 Zrotation Yrotation Xrotation
                                        End Site
                                        {
                                            OFFSET -0.183446 -0.044965 -0.024786
                                        }
                                    }
                                }
                            }
                        }
                    }
                }
            }
        }
    }
    JOINT LeftHip
    {
        OFFSET 0.685143 0.673822 -0.044491
        CHANNELS 3 Zrotation Yrotation Xrotation
        JOINT LeftKnee
        {
            OFFSET 0.085364 -3.750208 0.017676
            CHANNELS 3 Zrotation Yrotation Xrotation
            JOINT LeftAnkle
            {
                OFFSET 0.094583 -4.155206 0.019585
                CHANNELS 3 Zrotation Yrotation Xrotation
                JOINT LeftToe
                {
                    OFFSET -0.000000 -0.395925 0.621478
                    CHANNELS 3 Zrotation Yrotation Xrotation
                    End Site
                    {
                        OFFSET -0.000000 -0.077878 0.321152
                    }
                }
            }
        }
    }
    JOINT RightHip
    {
        OFFSET -0.685143 0.673822 -0.044492
        CHANNELS 3 Zrotation Yrotation Xrotation
        JOINT RightKnee
        {
            OFFSET -0.085364 -3.750208 0.017677
            CHANNELS 3 Zrotation Yrotation Xrotation
            JOINT RightAnkle
            {
                OFFSET -0.094583 -4.155206 0.019585
                CHANNELS 3 Zrotation Yrotation Xrotation
                JOINT RightToe
                {
                    OFFSET -0.000000 -0.395925 0.621478
                    CHANNELS 3 Zrotation Yrotation Xrotation
                    End Site
                    {
                        OFFSET -0.000000 -0.077878 0.321152
                    }
                }
            }
        }
    }
}
MOTION
Frames: 4
Frame Time: 0.033333
-0.015740 8.344469 -0.474365 180.000000 -0.000011 180.000000 -0.000002 0.000000 -3.571787 -0.000002 -0.000000 -3.645255 0.000003 -0.000003 4.684103 0.000005 -0.000009 11.067135 -15.025585 -0.865362 -0.003012 -61.515247 -2.980973 1.948860 -0.000002 0.000001 0.000000 -9.240868 -0.393589 -5.891579 -0.000000 -0.000000 -0.000001 0.000000 0.000006 0.000001 -0.000000 -0.000001 -0.000001 0.000001 0.000003 0.000001 0.000001 0.000002 0.000000 -0.000002 -0.000001 0.000000 -0.000002 0.000002 0.000000 -0.000007 0.000001 0.000001 -0.000002 0.000002 -0.000001 -0.000002 0.000003 0.000000 -0.000000 0.000003 0.000000 -0.000001 0.000001 0.000001 -0.000003 0.000003 0.000001 -0.000001 -0.000001 0.000000 -0.000002 0.000001 0.000000 15.005512 1.068424 -0.003738 61.503593 3.644898 2.190061 0.000002 0.000001 -0.000001 9.296122 -0.287685 -6.429662 -0.000001 0.000003 -0.000001 0.000000 -0.000003 0.000000 0.000001 0.000004 -0.000003 0.000001 0.000002 0.000000 0.000000 0.000001 -0.000001 -0.000001 0.000001 0.000000 -0.000001 0.000001 0.000000 -0.000002 -0.000001 0.000001 0.000001 0.000002 0.000001 0.000003 0.000002 -0.000000 0.000001 -0.000000 -0.000001 0.000003 0.000001 0.000000 0.000002 0.000001 0.000000 0.000004 -0.000002 0.000000 -0.000002 -0.000000 -0.000000 -0.828503 -0.104163 -2.863306 0.027870 0.268151 11.865096 1.634916 2.183561 -14.084697 0.008120 0.039448 -1.998880 0.828502 0.104139 -2.862068 -0.027826 -0.267995 11.858045 -1.635353 -2.183606 -14.076456 -0.008145 -0.039588 -2.005552
-0.016036 8.344469 -0.474249 180.000000 -0.000011 180.000000 -0.000334 -0.000106 -3.571823 -0.000344 0.000042 -3.645298 -0.002894 -0.000318 4.684145 0.000029 -0.000486 11.067163 -15.026044 -0.867796 -0.002998 -61.517757 -2.988737 1.960517 0.000005 0.000002 0.000000 -9.241005 -0.397565 -5.895912 -0.000004 -0.000000 -0.000001 -0.000000 0.000001 0.000003 0.000001 -0.000003 -0.000003 -0.000004 -0.000002 -0.000002 -0.000000 -0.000001 -0.000000 -0.000001 -0.000000 0.000000 -0.000004 -0.000001 -0.000003 0.000001 -0.000001 0.000000 -0.000002 0.000001 0.000000 -0.000001 -0.000001 -0.000002 0.000007 -0.000001 0.000000 0.000000 -0.000001 0.000000 -0.000006 0.000001 -0.000002 -0.000002 -0.000000 -0.000000 -0.000001 -0.000002 -0.000000 15.005648 1.070652 -0.003756 61.499981 3.652128 2.191303 -0.000005 0.000001 -0.000000 9.296338 -0.284741 -6.437264 0.000001 -0.000003 0.000005 -0.000000 -0.000001 0.000004 0.000002 -0.000001 -0.000001 0.000007 -0.000001 -0.000000 0.000000 -0.000002 0.000000 -0.000001 -0.000001 -0.000000 -0.000002 0.000002 0.000000 -0.000004 -0.000002 0.000000 0.000003 0.000001 -0.000001 0.000001 0.000002 -0.000001 -0.000001 -0.000001 -0.000001 -0.000000 0.000002 0.000001 0.000006 -0.000000 -0.000000 0.000004 -0.000002 0.000000 -0.000000 0.000002 0.000000 -0.829799 -0.103628 -2.873792 0.027950 0.268531 11.882171 1.639538 2.183589 -14.089916 0.008135 0.039511 -1.995918 0.826318 0.105406 -2.878719 -0.027967 -0.268661 11.887958 -1.637343 -2.179857 -14.085731 -0.008162 -0.039658 -2.002035
-0.016913 8.344469 -0.473906 180.000000 -0.000011 180.000000 -0.001307 -0.000419 -3.571920 -0.001347 0.000165 -3.645399 -0.011458 -0.001247 4.684253 0.000102 -0.001894 11.067254 -15.027379 -0.874945 -0.002976 -61.525196 -3.011533 1.994907 -0.000001 0.000002 0.000000 -9.241413 -0.409335 -5.908710 -0.000002 0.000002 -0.000009 0.000002 0.000002 0.000000 -0.000003 -0.000002 0.000000 0.000002 0.000002 -0.000001 -0.000000 -0.000000 0.000000 -0.000000 0.000003 0.000000 0.000005 -0.000001 -0.000001 -0.000003 0.000001 -0.000001 0.000005 0.000003 0.000001 0.000012 -0.000000 -0.000001 0.000002 -0.000000 0.000001 0.000003 -0.000001 0.000000 -0.000001 -0.000000 -0.000000 -0.000004 -0.000000 0.000000 -0.000001 -0.000001 0.000000 15.005998 1.077204 -0.003831 61.489330 3.673337 2.194960 -0.000001 -0.000001 0.000000 9.296978 -0.276032 -6.459589 -0.000004 0.000002 -0.000003 -0.000002 0.000001 0.000001 0.000002 0.000003 -0.000002 0.000002 -0.000002 -0.000001 -0.000002 -0.000000 -0.000001 -0.000001 0.000001 0.000000 -0.000012 0.000001 -0.000001 -0.000005 -0.000002 0.000000 0.000003 0.000002 0.000000 -0.000003 -0.000000 0.000000 -0.000001 -0.000000 -0.000002 -0.000001 -0.000000 0.000001 -0.000003 -0.000002 0.000001 0.000003 -0.000001 0.000000 -0.000000 0.000001 -0.000000 -0.833612 -0.102050 -2.905149 0.028190 0.269670 11.933304 1.653136 2.183667 -14.105660 0.008177 0.039684 -1.986789 0.819863 0.109138 -2.927337 -0.028377 -0.270605 11.975224 -1.643203 -2.168786 -14.112628 -0.008212 -0.039866 -1.991916
-0.018350 8.344469 -0.473344 180.000000 -0.000011 180.000000 -0.002889 -0.000926 -3.572052 -0.002978 0.000365 -3.645532 -0.025501 -0.002768 4.684409 0.000221 -0.004203 11.067360 -15.029569 -0.886583 -0.002935 -61.537411 -3.048638 2.051005 0.000001 -0.000000 0.000000 -9.242087 -0.428672 -5.929682 -0.000003 0.000002 0.000008 0.000002 0.000003 0.000000 0.000001 0.000002 0.000000 -0.000001 0.000004 0.000000 -0.000000 -0.000000 0.000000 -0.000000 -0.000001 0.000000 0.000001 -0.000000 0.000000 0.000001 -0.000002 0.000000 0.000001 0.000002 -0.000000 -0.000001 -0.000001 -0.000000 0.000001 0.000001 0.000000 -0.000003 -0.000001 0.000000 -0.000002 -0.000001 -0.000001 -0.000000 0.000001 -0.000001 -0.000002 -0.000001 -0.000000 15.006570 1.087865 -0.003945 61.471882 3.707838 2.200800 0.000001 -0.000001 0.000000 9.298019 -0.261730 -6.495907 -0.000001 0.000003 -0.000001 -0.000001 0.000001 0.000002 0.000002 0.000002 -0.000000 0.000004 0.000003 -0.000001 -0.000001 -0.000000 0.000000 0.000000 -0.000000 0.000000 0.000001 0.000002 0.000000 -0.000003 -0.000000 0.000001 0.000004 -0.000002 0.000001 0.000004 0.000003 -0.000001 -0.000001 0.000001 -0.000001 -0.000004 0.000002 -0.000000 0.000004 -0.000002 0.000001 0.000003 -0.000002 0.000000 0.000001 -0.000001 -0.000000 -0.839832 -0.099452 -2.956664 0.028587 0.271540 12.017299 1.675334 2.183788 -14.131551 0.008244 0.039953 -1.971643 0.809282 0.115249 -3.006382 -0.029051 -0.273762 12.117042 -1.652764 -2.150680 -14.156177 -0.008292 -0.040193 -1.975223
